<?xml version="1.0" standalone="no"?>
<!DOCTYPE svg PUBLIC "-//W3C//DTD SVG 20010904//EN"
 "http://www.w3.org/TR/2001/REC-SVG-20010904/DTD/svg10.dtd">
<svg version="1.0" xmlns="http://www.w3.org/2000/svg"
 width="512.000000pt" height="512.000000pt" viewBox="0 0 512.000000 512.000000"
 preserveAspectRatio="xMidYMid meet">
<metadata>
Created by potrace 1.14, written by Peter Selinger 2001-2017
</metadata>
<g transform="translate(0.000000,512.000000) scale(0.100000,-0.100000)"
fill="#000000" stroke="none">
<path d="M543 4468 c-139 -23 -259 -147 -280 -288 -5 -30 -8 -616 -8 -1302 l0
-1248 -101 0 c-89 0 -105 -3 -129 -22 l-27 -21 4 -206 c3 -199 4 -208 30 -264
57 -122 179 -212 307 -226 31 -3 1044 -6 2251 -5 1720 1 2205 4 2240 14 139
38 245 145 276 279 9 35 14 121 14 233 l0 177 -26 20 c-23 18 -41 21 -128 21
l-101 0 -1 1273 c0 1196 -1 1275 -18 1326 -24 73 -65 131 -125 175 -102 75 92
69 -2137 70 -1101 1 -2020 -2 -2041 -6z"/>
<path d="M39 773 c-16 -6 -31 -22 -34 -35 -7 -27 8 -72 27 -84 17 -11 3316
-12 3350 -1 51 16 58 80 13 117 -23 19 -3312 22 -3356 3z"/>
<path d="M3601 776 c-10 -4 -24 -19 -31 -32 -18 -32 3 -80 38 -91 15 -5 178
-9 364 -8 315 0 338 1 357 19 26 24 27 66 2 97 l-19 23 -346 1 c-190 0 -354
-4 -365 -9z"/>
<path d="M4562 776 c-28 -16 -40 -39 -36 -68 7 -61 13 -62 278 -63 133 -1 252
2 266 5 52 13 64 97 17 122 -27 14 -499 18 -525 4z"/>
</g>
</svg>
